<?xml version="1.0" standalone="no"?>
<!DOCTYPE svg PUBLIC "-//W3C//DTD SVG 20010904//EN"
 "http://www.w3.org/TR/2001/REC-SVG-20010904/DTD/svg10.dtd">
<svg version="1.0" xmlns="http://www.w3.org/2000/svg"
 width="1024.000000pt" height="1024.000000pt" viewBox="0 0 1024.000000 1024.000000"
 preserveAspectRatio="xMidYMid meet">

<g transform="translate(0.000000,1024.000000) scale(0.100000,-0.100000)"
fill="#000000" stroke="none">
<path d="M3140 8863 c-331 -18 -557 -70 -761 -174 -232 -119 -414 -278 -601
-524 -204 -269 -353 -668 -415 -1105 -25 -181 -25 -681 0 -870 71 -537 229
-931 515 -1287 237 -294 523 -465 882 -525 105 -18 764 -18 782 0 9 9 6 12
-16 12 -73 0 -253 73 -382 155 -87 56 -217 169 -292 254 -113 130 -247 351
-337 557 l-30 71 -95 -123 c-57 -74 -97 -119 -101 -111 -3 7 -12 33 -19 59
-14 53 -28 27 113 210 l58 75 -35 125 c-19 69 -40 157 -47 197 -7 39 -16 71
-20 71 -10 0 -167 -187 -203 -242 -17 -26 -33 -48 -36 -48 -8 0 -51 143 -50
170 0 18 39 66 135 169 l135 143 -5 57 c-3 31 -8 76 -10 101 -3 25 -8 88 -11
140 -4 52 -8 96 -9 98 -8 9 -225 -249 -265 -313 l-24 -39 -7 28 c-4 15 -11 78
-15 141 l-7 113 110 109 c61 60 131 126 156 147 l45 37 6 97 c4 53 9 128 13
167 l5 69 -93 -83 c-52 -46 -127 -115 -167 -154 -40 -38 -75 -67 -79 -64 -12
13 16 259 32 277 13 15 59 51 308 246 49 38 53 44 69 115 25 112 24 115 -14
86 -39 -30 -353 -226 -374 -234 -10 -4 -37 41 -98 168 -47 96 -101 216 -121
267 l-36 92 56 108 c93 179 80 180 154 -10 35 -90 72 -194 83 -233 11 -38 22
-72 24 -74 1 -2 90 48 196 112 106 63 208 123 227 133 26 14 45 40 76 102 23
45 41 82 40 82 -8 0 -271 -131 -353 -175 -102 -56 -102 -56 -111 -33 -5 13
-27 68 -48 123 -22 55 -55 141 -73 192 l-32 92 41 48 c23 26 68 71 100 100
l59 53 21 -84 c11 -46 27 -125 35 -176 9 -51 17 -95 20 -97 2 -3 15 2 28 11
36 24 220 99 345 141 101 34 115 41 135 73 12 20 35 51 51 69 16 18 25 33 21
33 -28 0 -248 -66 -349 -104 -65 -25 -119 -44 -120 -43 -5 8 -65 247 -65 258
0 20 253 159 266 146 9 -8 -31 -142 -47 -158 -24 -24 -21 -24 103 6 91 22 177
38 328 61 30 4 63 20 100 48 212 160 485 257 679 242 53 -4 58 -3 26 4 -22 5
-123 13 -225 19 -176 10 -254 11 -380 4z m-162 -159 c-55 -50 -129 -88 -190
-99 -43 -8 -44 -6 -22 57 15 44 16 46 72 57 201 42 204 41 140 -15z m-1135
-1545 c20 -36 35 -68 32 -70 -2 -3 -11 -80 -19 -173 -8 -92 -16 -169 -18 -171
-9 -9 -190 248 -233 330 -54 102 -54 94 -5 287 49 194 41 193 130 16 41 -84
92 -183 113 -219z m-263 -365 c18 -30 86 -132 153 -227 l121 -172 2 -85 c2
-47 6 -111 9 -142 4 -43 2 -58 -7 -58 -13 0 -161 168 -263 298 -32 41 -61 90
-66 110 -10 44 1 343 12 336 4 -2 22 -29 39 -60z m135 -844 c83 -85 165 -174
183 -197 31 -39 58 -103 45 -103 -13 0 -329 245 -349 271 -18 23 -52 194 -37
188 5 -2 76 -74 158 -159z m185 -548 c124 -94 200 -160 200 -173 0 -24 -90 15
-240 104 -111 65 -125 79 -140 135 -7 26 -15 56 -17 67 -6 22 -22 32 197 -133z"/>
<path d="M3596 8714 c-173 -37 -333 -126 -480 -265 -165 -156 -301 -354 -406
-588 -254 -571 -325 -1284 -194 -1945 90 -454 260 -818 526 -1126 44 -51 157
-150 171 -150 6 0 8 69 5 175 l-6 175 437 0 c240 0 508 2 596 4 88 3 433 5
768 5 l607 1 0 745 0 745 -205 0 -205 0 0 -55 0 -55 135 0 135 0 0 -361 0
-362 -83 -86 c-102 -106 -180 -200 -224 -268 l-34 -53 -429 0 -429 0 -64 -49
c-166 -125 -371 -177 -542 -137 -145 34 -277 120 -390 253 -339 397 -478 1115
-344 1783 31 157 114 389 182 510 261 465 622 637 973 464 340 -168 580 -600
645 -1164 19 -166 7 -510 -25 -690 -57 -330 -150 -580 -300 -809 l-54 -81 228
0 c170 0 230 3 238 13 13 16 83 184 115 277 169 489 206 1132 96 1664 -47 226
-138 478 -251 695 -264 510 -599 754 -1027 750 -53 0 -127 -7 -165 -15z"/>
<path d="M3670 7994 c-72 -19 -91 -38 -30 -29 25 3 82 2 127 -4 297 -37 548
-305 692 -737 69 -209 85 -330 85 -619 0 -320 -27 -485 -120 -737 -105 -282
-319 -521 -533 -593 -94 -32 -251 -35 -354 -6 -79 22 -76 7 7 -33 171 -83 380
-75 556 22 81 44 209 170 280 276 268 400 362 1105 220 1653 -111 429 -356
730 -656 807 -76 20 -201 20 -274 0z"/>
<path d="M3545 7821 c-89 -23 -204 -116 -283 -232 -42 -63 -114 -209 -146
-297 -31 -87 -30 -92 56 -163 110 -91 190 -129 275 -129 35 0 50 6 84 37 78
71 110 155 129 338 13 132 0 296 -32 385 -24 68 -32 73 -83 61z"/>
<path d="M3910 7798 c0 -7 -7 -71 -15 -143 -17 -150 -19 -369 -5 -445 22 -116
87 -199 163 -207 85 -10 242 53 307 122 l24 26 -28 85 c-36 112 -113 262 -175
345 -102 134 -270 269 -271 217z"/>
<path d="M5705 7774 c-232 -34 -454 -119 -574 -222 l-35 -29 26 -129 c38 -183
50 -288 72 -597 8 -103 16 -190 19 -193 2 -3 237 -8 522 -11 l517 -6 34 -36
33 -36 201 0 c181 0 202 2 211 18 9 16 33 17 285 17 291 0 290 0 354 -51 72
-58 172 -80 261 -59 41 10 65 25 119 76 67 63 68 64 125 64 72 0 119 22 137
63 13 33 16 255 3 277 -3 5 -40 10 -81 10 -52 0 -74 4 -74 12 0 7 26 38 58 68
l59 55 -17 40 c-20 48 -87 117 -147 152 -64 37 -121 51 -297 74 -88 11 -169
25 -180 31 -12 6 -43 30 -71 53 -103 88 -318 220 -442 273 -131 56 -371 83
-778 87 -170 2 -323 1 -340 -1z m59 -92 c-9 -6 -77 -185 -102 -267 l-9 -30
-99 0 c-208 0 -353 9 -359 23 -3 7 12 37 33 67 59 86 196 155 387 196 83 18
168 24 149 11z m214 -8 c51 -14 68 -27 165 -124 69 -69 107 -115 107 -129 0
-26 3 -26 -62 0 -37 14 -75 21 -123 20 -63 0 -72 -3 -92 -26 -28 -31 -29 -42
-5 -48 9 -2 -37 -2 -103 1 -66 2 -124 9 -130 14 -13 12 24 155 63 241 l31 67
46 0 c26 0 72 -7 103 -16z m487 -15 c305 -31 307 -31 440 -103 94 -51 275
-167 292 -187 10 -12 -19 -13 -185 -6 -108 4 -289 10 -402 15 l-204 7 -34 45
c-18 25 -74 91 -122 147 l-89 102 102 -5 c56 -3 147 -10 202 -15z m465 -474
c203 -25 330 -73 371 -138 10 -18 19 -36 19 -41 0 -4 -75 -5 -167 -2 -260 10
-264 11 -319 59 -54 48 -82 101 -63 123 14 17 15 17 159 -1z m-1594 -208 c14
-43 32 -111 38 -150 12 -70 13 -72 47 -79 40 -8 335 -35 497 -44 84 -5 112
-10 112 -21 0 -11 -62 -13 -345 -13 -318 0 -345 1 -354 18 -5 9 -14 58 -20
107 -6 50 -16 113 -21 140 -5 28 -12 70 -14 96 -3 25 -8 54 -11 65 -5 13 1 10
19 -11 14 -16 38 -65 52 -108z m1210 114 c46 -21 95 -78 125 -145 32 -73 66
-278 39 -236 -8 13 -10 13 -10 1 0 -34 -17 8 -28 69 -22 121 -98 239 -167 256
-91 23 -183 -58 -216 -190 -6 -25 -15 -46 -20 -46 -5 0 -9 -7 -9 -16 0 -8 -5
-12 -11 -9 -28 18 29 202 80 258 71 79 134 96 217 58z m1394 -46 c-14 -7 -27
-11 -30 -9 -6 7 22 24 40 23 9 0 5 -6 -10 -14z m-1442 -147 c29 -32 42 -71 42
-126 0 -105 -47 -176 -111 -170 -29 3 -37 10 -56 48 -39 77 -28 185 25 243 32
33 71 35 100 5z m-251 -170 c-3 -8 -6 -5 -6 6 -1 11 2 17 5 13 3 -3 4 -12 1
-19z"/>
<path d="M3734 7062 c-37 -24 -44 -96 -13 -136 25 -32 53 -33 73 -4 43 61 -7
176 -60 140z"/>
<path d="M3711 6795 c-43 -37 -66 -105 -66 -195 1 -161 101 -268 188 -200 14
11 38 46 53 77 52 106 27 246 -56 317 -40 33 -80 33 -119 1z"/>
<path d="M3970 6790 c-11 -11 -22 -31 -26 -46 -9 -35 12 -101 37 -114 16 -9
25 -6 49 19 34 33 38 66 15 111 -23 44 -50 55 -75 30z"/>
<path d="M3487 6762 c-24 -26 -22 -94 2 -116 30 -27 63 -17 79 25 28 74 -34
143 -81 91z"/>
<path d="M2995 6683 c-17 -173 6 -423 56 -618 22 -88 112 -332 127 -347 12
-12 111 132 159 227 67 134 110 316 98 420 -19 170 -72 272 -175 332 -38 23
-187 63 -231 63 -27 0 -27 -2 -34 -77z"/>
<path d="M4398 6735 c-177 -49 -278 -150 -307 -309 -29 -157 1 -266 136 -493
75 -126 78 -128 107 -61 66 149 122 410 132 616 7 125 -1 263 -14 261 -4 -1
-28 -7 -54 -14z"/>
<path d="M5778 6414 c-15 -8 -32 -23 -38 -34 -6 -12 -10 -268 -10 -744 l0
-726 -640 0 c-352 0 -640 -3 -640 -6 0 -3 15 -33 34 -67 41 -74 72 -172 82
-256 l7 -61 61 0 c33 -1 86 -3 116 -5 30 -3 82 -7 114 -10 66 -5 71 -8 62 -30
-5 -13 -33 -15 -218 -13 l-213 3 -6 72 c-16 176 -111 319 -255 385 -38 18 -67
23 -129 23 -69 0 -89 -4 -145 -31 -80 -38 -132 -82 -167 -141 -91 -156 -84
-375 17 -515 l40 -56 -73 -6 c-39 -3 -216 -10 -392 -16 -342 -11 -619 -22
-1130 -46 -176 -8 -350 -14 -387 -14 -37 0 -69 -4 -72 -8 -5 -8 122 -14 589
-27 105 -3 307 -10 450 -15 497 -18 1289 -25 2850 -25 969 1 1721 5 1965 13
528 15 1180 45 1180 53 0 3 -60 9 -132 13 -73 3 -205 13 -293 21 -88 8 -171
15 -185 15 -20 0 -11 9 45 46 39 25 82 61 95 81 31 45 59 128 60 176 l0 37
103 0 c106 0 165 11 179 32 12 19 10 300 -3 339 -6 19 -24 46 -40 60 -28 25
-29 28 -35 150 -13 275 -29 291 -492 489 -193 83 -194 83 -227 134 -18 28
-111 173 -207 321 -95 149 -182 283 -193 298 -22 30 -127 77 -213 96 -37 8
-274 11 -770 11 -613 -1 -721 -3 -744 -16z m655 -148 c21 -8 46 -21 56 -30 30
-28 94 -141 210 -376 l111 -225 1 -93 2 -93 -248 1 c-136 0 -252 3 -256 6 -5
3 -25 29 -45 59 l-36 55 -158 0 c-131 0 -161 3 -174 16 -14 13 -16 57 -16 322
0 331 1 341 54 362 36 15 455 11 499 -4z m929 -6 c23 -7 51 -27 75 -54 34 -39
257 -383 308 -475 11 -20 25 -39 30 -43 6 -4 -182 -8 -416 -8 l-426 0 -42 78
c-24 42 -70 126 -102 186 -52 94 -158 296 -167 318 -5 12 697 10 740 -2z
m-1314 -862 l-3 -33 -82 -3 -83 -3 0 36 0 35 86 0 85 0 -3 -32z m1709 -212
c77 -32 123 -106 123 -198 l0 -38 -224 0 c-167 0 -226 3 -234 13 -14 16 -38
117 -47 191 l-7 58 174 -4 c135 -4 182 -8 215 -22z m763 9 c6 -8 9 -23 5 -35
-6 -20 -11 -20 -272 -18 -235 3 -267 5 -276 20 -8 12 -7 21 2 32 12 14 48 16
271 16 213 0 260 -3 270 -15z m-1462 -180 c116 -52 224 -195 251 -335 6 -30
11 -86 12 -123 3 -81 -11 -104 -54 -88 -25 10 -27 14 -27 74 0 167 -88 323
-215 383 -67 32 -180 33 -260 3 -81 -30 -154 -101 -196 -191 -33 -71 -34 -76
-34 -203 0 -121 2 -134 28 -190 15 -33 41 -77 57 -97 17 -20 30 -39 30 -42 0
-8 -430 -7 -798 1 l-302 6 51 51 c55 55 80 97 98 164 l12 42 363 0 363 0 6 93
c17 245 137 416 336 473 75 22 205 12 279 -21z m1452 -21 c0 -38 -3 -45 -16
-40 -9 3 -126 6 -260 6 l-244 0 0 40 0 40 260 0 260 0 0 -46z m18 -211 l3 -33
-321 0 c-290 0 -322 2 -316 16 3 9 6 24 6 35 0 19 9 19 313 17 l312 -3 3 -32z
m-4381 -34 c73 -27 117 -104 118 -204 0 -125 -72 -223 -173 -233 -58 -5 -95
11 -140 62 -37 42 -52 91 -52 169 0 152 122 254 247 206z m2820 -15 c108 -71
135 -227 58 -343 -47 -70 -139 -100 -204 -67 -36 19 -90 80 -107 122 -19 44
-18 146 2 192 46 110 161 154 251 96z m774 -361 c22 -66 67 -131 114 -167 20
-16 34 -30 31 -33 -12 -13 -645 4 -659 17 -4 4 7 18 25 32 37 28 79 99 99 166
l12 42 180 -2 180 -3 18 -52z m-2779 -35 c9 -7 27 -32 42 -55 14 -23 30 -44
36 -48 33 -20 -9 -25 -230 -25 -132 0 -240 2 -240 5 0 3 16 19 35 36 19 17 44
46 55 65 l22 34 132 0 c91 0 137 -4 148 -12z"/>
<path d="M5974 6196 c-18 -13 -19 -30 -22 -270 l-3 -256 168 0 168 0 35 -68
35 -67 169 -3 c184 -3 202 2 193 48 -8 39 -267 586 -289 610 -18 19 -30 20
-226 20 -164 0 -212 -3 -228 -14z"/>
<path d="M4032 4643 c-42 -17 -56 -135 -23 -190 34 -56 118 -52 148 7 26 52
10 160 -27 180 -19 10 -76 12 -98 3z"/>
<path d="M6821 4629 c-64 -69 -17 -219 68 -219 78 0 120 124 68 201 -20 29
-29 34 -69 37 -37 2 -50 -1 -67 -19z"/>
<path d="M3892 6347 c-39 -46 -32 -130 12 -147 62 -23 100 86 49 143 -19 20
-46 22 -61 4z"/>
<path d="M3594 6340 c-42 -16 -56 -107 -23 -147 18 -21 56 -15 78 13 47 59 6
157 -55 134z"/>
<path d="M3704 6052 c-84 -61 -158 -210 -214 -430 -16 -66 -30 -137 -30 -156
0 -34 4 -38 60 -66 71 -36 158 -60 215 -60 95 0 222 50 308 122 48 41 49 43
44 88 -6 52 -78 242 -132 350 -86 171 -161 217 -251 152z"/>
<path d="M3300 4718 l0 -178 170 0 c194 0 169 -15 190 115 6 39 24 108 41 155
16 46 29 84 29 85 0 0 -97 0 -215 1 l-215 1 0 -179z"/>
<path d="M3903 3686 c-76 -25 -129 -63 -167 -120 -60 -91 -69 -148 -63 -396 4
-188 7 -222 26 -272 43 -111 148 -186 275 -195 128 -9 249 39 306 122 53 78
62 137 58 403 l-3 237 -32 61 c-36 69 -86 118 -152 147 -58 26 -188 33 -248
13z m175 -182 c46 -30 52 -66 52 -311 0 -211 -2 -230 -20 -261 -46 -75 -166
-77 -205 -2 -20 38 -22 490 -2 530 6 14 32 35 57 48 48 24 76 23 118 -4z"/>
<path d="M5695 3686 c-66 -21 -101 -43 -143 -91 -71 -81 -77 -113 -77 -405 l0
-255 33 -68 c24 -48 46 -77 75 -98 73 -53 103 -62 217 -63 96 -1 110 1 162 27
64 32 111 80 142 146 20 43 21 63 21 316 0 255 -1 273 -21 316 -26 56 -86 124
-128 146 -79 41 -203 54 -281 29z m166 -179 c58 -39 61 -54 62 -310 2 -207 0
-236 -16 -265 -37 -68 -142 -80 -191 -21 -35 41 -38 67 -34 310 3 238 6 250
71 289 42 26 67 25 108 -3z"/>
<path d="M950 3195 l0 -485 480 0 480 0 0 485 0 485 -100 0 -100 0 0 -400 0
-400 -85 0 -85 0 0 400 0 400 -105 0 -105 0 0 -400 0 -400 -90 0 -90 0 0 400
0 400 -100 0 -100 0 0 -485z"/>
<path d="M2070 3195 l0 -485 99 0 98 0 45 108 c25 59 75 177 111 262 117 282
107 288 107 -67 l0 -303 100 0 100 0 0 485 0 485 -97 0 -98 0 -16 -38 c-10
-20 -65 -147 -123 -282 -59 -135 -111 -249 -115 -253 -5 -5 -6 122 -4 282 l4
291 -105 0 -106 0 0 -485z"/>
<path d="M2900 3205 c0 -261 -1 -478 -2 -482 -2 -5 43 -9 100 -11 l102 -3 0
205 c0 237 -14 214 130 212 l95 -1 3 -207 2 -208 100 0 100 0 0 485 0 485
-102 0 -103 0 3 -185 3 -186 -117 3 -117 3 2 183 2 182 -100 0 -101 0 0 -475z"/>
<path d="M4480 3195 l0 -485 96 0 96 0 -4 304 c-1 167 0 302 5 299 4 -2 7 -9
7 -15 0 -6 37 -110 81 -230 l82 -218 67 0 66 0 62 193 c34 105 64 205 68 220
3 15 11 26 18 24 8 -3 12 -87 13 -288 l2 -284 96 -3 95 -3 0 486 0 485 -117 0
-118 0 -84 -268 c-47 -147 -89 -273 -94 -279 -13 -18 -23 -9 -30 26 -5 24
-133 379 -179 494 l-10 27 -109 0 -109 0 0 -485z"/>
<path d="M6267 3198 l3 -483 100 -3 100 -3 0 205 c0 113 3 207 8 209 4 2 55 2
115 -1 l107 -5 0 -203 0 -204 105 0 105 0 0 485 0 485 -105 0 -105 0 0 -185 0
-185 -115 0 -115 0 0 185 0 185 -102 0 -103 0 2 -482z"/>
<path d="M7002 3588 l3 -93 45 -1 c25 0 69 -1 98 -2 l52 -2 0 -390 0 -390 100
0 100 0 2 393 3 392 108 3 107 3 0 89 0 90 -310 0 -311 0 3 -92z"/>
<path d="M7836 3668 c-9 -28 -226 -943 -226 -950 0 -5 47 -8 103 -8 l104 0 19
93 20 92 119 0 120 0 16 -65 c10 -36 20 -77 23 -92 l6 -28 100 0 c89 0 100 2
99 18 0 9 -53 226 -118 482 l-118 465 -132 3 c-100 2 -132 0 -135 -10z m144
-253 c0 -3 16 -76 35 -162 19 -86 35 -162 35 -170 0 -10 -20 -13 -80 -13 l-81
0 7 38 c3 20 15 73 24 117 10 44 24 106 30 138 6 31 16 57 21 57 5 0 9 -2 9
-5z"/>
<path d="M8433 3618 c19 -35 76 -140 126 -234 l91 -172 -125 -240 c-69 -132
-125 -245 -125 -251 0 -7 34 -11 100 -11 l99 0 107 213 c58 116 112 219 120
227 12 12 14 -18 14 -213 l0 -227 95 0 95 0 0 223 1 222 112 -220 112 -220
113 -3 c61 -1 112 -1 112 2 0 2 -17 35 -38 73 -21 37 -76 140 -122 228 -46 88
-89 169 -96 180 -12 18 -6 35 58 150 108 198 178 328 178 332 0 2 -49 3 -109
3 l-109 0 -97 -187 c-54 -104 -101 -192 -106 -198 -5 -5 -9 73 -9 188 l0 197
-95 0 -95 0 0 -200 c0 -157 -3 -200 -13 -200 -7 0 -57 90 -112 200 l-98 200
-109 0 -109 0 34 -62z"/>
<path d="M2819 2407 c-111 -41 -169 -116 -185 -238 l-7 -49 92 0 91 0 5 28
c10 49 30 77 69 96 48 24 110 13 138 -24 22 -30 33 -88 24 -124 -6 -25 -8 -26
-96 -26 l-90 0 0 -80 0 -80 85 0 c100 0 110 -9 103 -98 -4 -47 -10 -60 -37
-84 -66 -59 -181 -25 -197 58 l-6 34 -89 0 c-101 0 -100 1 -74 -86 22 -74 67
-129 133 -161 51 -25 68 -28 152 -27 109 0 163 19 219 75 70 69 76 97 76 344
0 254 -7 292 -68 361 -59 68 -105 87 -212 91 -59 2 -103 -1 -126 -10z"/>
<path d="M7474 2400 c-70 -28 -137 -101 -158 -171 -22 -73 -23 -423 -1 -496
22 -75 65 -126 132 -159 51 -25 69 -29 148 -29 110 0 174 25 236 92 69 75 73
93 77 320 3 163 1 212 -12 257 -21 73 -69 132 -136 170 -47 27 -65 31 -145 33
-72 3 -100 -1 -141 -17z m192 -159 c58 -35 66 -70 62 -274 -3 -205 -12 -236
-69 -256 -48 -17 -83 -13 -120 12 -50 33 -58 69 -58 260 -1 190 7 224 61 257
41 25 84 25 124 1z"/>
<path d="M1700 1980 l0 -430 80 0 80 0 51 102 c61 122 177 369 195 418 l13 35
1 -35 c0 -19 2 -143 3 -275 l2 -240 88 -3 87 -3 0 431 0 431 -85 -3 -86 -3
-114 -235 c-63 -129 -121 -244 -130 -255 -14 -17 -15 6 -15 238 l0 257 -85 0
-85 0 0 -430z"/>
<path d="M3350 1979 l0 -431 193 4 c217 5 256 15 313 80 43 49 59 99 58 183
-1 82 -21 133 -65 167 l-31 25 30 30 c72 72 67 236 -10 310 -56 54 -98 63
-304 63 l-184 0 0 -431z m357 246 c19 -26 12 -108 -12 -135 -15 -16 -31 -20
-87 -20 l-68 0 0 91 0 91 76 -4 c61 -3 79 -7 91 -23z m2 -309 c31 -33 39 -102
16 -149 -20 -42 -54 -57 -131 -57 l-54 0 0 115 0 115 73 0 c65 0 76 -3 96 -24z"/>
<path d="M4160 2318 c-31 -135 -181 -740 -187 -755 -4 -10 16 -13 90 -13 83 0
96 2 100 18 3 9 13 50 22 90 l17 72 107 0 107 0 18 -90 19 -90 97 0 96 0 -67
261 c-37 144 -86 338 -109 430 l-42 169 -123 0 -123 0 -22 -92z m189 -277 c17
-85 31 -158 31 -163 0 -11 -137 -10 -144 1 -5 8 45 276 60 325 10 32 19 3 53
-163z"/>
<path d="M4740 1980 l0 -431 93 3 92 3 3 198 c1 119 6 197 12 197 6 0 55 -90
110 -200 l100 -200 105 0 c58 0 105 1 105 3 0 3 -116 224 -191 362 l-48 90 70
125 c39 69 88 160 110 203 l39 77 -102 0 -103 0 -85 -162 c-47 -89 -87 -168
-88 -175 -2 -8 -11 -13 -20 -11 -15 3 -17 23 -17 176 l0 172 -92 0 -93 0 0
-430z"/>
<path d="M5437 2303 c25 -60 81 -193 125 -298 80 -189 89 -225 68 -264 -9 -17
-20 -21 -60 -21 l-50 0 0 -85 0 -85 79 0 c95 0 137 13 156 50 19 36 107 277
201 550 41 118 79 225 84 238 l10 23 -97 -3 -98 -3 -52 -178 c-29 -97 -56
-185 -61 -194 -11 -19 -24 13 -93 234 l-44 143 -107 0 -106 0 45 -107z"/>
<path d="M6186 2298 c-15 -62 -61 -248 -101 -413 -41 -165 -77 -308 -81 -318
-6 -16 1 -18 87 -15 l93 3 21 85 20 85 111 3 110 3 13 -68 c24 -126 10 -113
118 -113 85 0 94 2 89 18 -3 9 -32 125 -65 257 -34 132 -81 317 -105 410 l-43
170 -119 3 -120 3 -28 -113z m193 -260 c17 -79 31 -149 31 -156 0 -8 -23 -12
-75 -12 -62 0 -75 3 -75 16 0 21 57 294 66 318 7 18 8 18 15 -1 4 -12 21 -86
38 -165z"/>
<path d="M6652 2328 l3 -83 93 -3 92 -3 0 -345 0 -345 93 3 92 3 3 343 2 342
95 0 95 0 0 85 0 85 -286 0 -286 0 4 -82z"/>
<path d="M8050 1980 l0 -430 90 0 90 0 0 145 0 145 79 0 c110 0 172 22 222 78
102 116 88 351 -25 437 -59 45 -113 55 -293 55 l-163 0 0 -430z m325 248 c33
-29 48 -93 36 -150 -15 -64 -48 -88 -122 -88 l-59 0 0 130 0 130 59 0 c48 0
65 -5 86 -22z"/>
</g>
</svg>
